<?xml version="1.0" encoding="utf-8"?>
<!-- Generator: Adobe Illustrator 26.0.1, SVG Export Plug-In . SVG Version: 6.00 Build 0)  -->
<svg version="1.1" id="Layer_1" xmlns="http://www.w3.org/2000/svg" xmlns:xlink="http://www.w3.org/1999/xlink" x="0px" y="0px"
	 viewBox="0 0 987.8 164.6" style="enable-background:new 0 0 987.8 164.6;" xml:space="preserve">
<style type="text/css">
	.st0{fill:#FAB62E;}
	.st1{fill:#292F70;}
	.st2{fill:#1AACE2;}
	.st3{fill:#FFFFFF;}
	.st4{fill:#E84057;}
	.st5{fill:#04B2E2;}
	.st6{fill:#FAB43A;}
	.st7{fill:#EA4C5F;}
</style>
<g>
	<g>
		<path class="st0" d="M582.9,164.6c-45.4,0-82.3-36.8-82.3-82.3c0-45.4,36.8-82.3,82.3-82.3c45.4,0,82.3,36.8,82.3,82.3
			C665.2,127.7,628.3,164.6,582.9,164.6"/>
		<path class="st1" d="M575.9,4.2c-7.2,0.6-14.3,2.2-21.1,4.7c-1.1,0.4-2.2,0.9-3.3,1.3l0.1,0.2c0,0,0,0,0,0l-0.1-0.2
			c-1.2,0.5-2.4,1.1-3.6,1.7h0l0,0c0,0,0,0,0,0h0l-0.7,0.3l0.5,1l-0.5-1l-1.2,0.6c-6.8,3.6-13.1,8.1-18.6,13.5l0,0
			c-0.1,0.1-0.1,0.1-0.2,0.2c-0.1,0.1-0.1,0.1-0.2,0.2l0,0c-5.4,5.5-9.9,11.8-13.5,18.6h0c-0.2,0.4-0.4,0.8-0.6,1.2l1,0.5l-1-0.5
			l-0.3,0.7l1,0.5l-1-0.5c-0.6,1.2-1.1,2.4-1.7,3.7c-0.5,1.1-0.9,2.2-1.3,3.3l1,0.4l-1-0.4c-2.5,6.8-4.1,13.9-4.7,21.1
			c-0.5,6.5-0.2,13.2,0.9,19.7l1.1-0.2l-1.1,0.2c0.2,1,0.4,2.1,0.6,3.1c1.2,5.9,3.1,11.6,5.6,17l0.9-0.4l-0.9,0.4
			c5.9,12.8,15.3,23.8,27,31.8l0.6-0.9l-0.6,0.9c4.6,3.1,9.5,5.8,14.6,7.9c7.3,3,15.1,4.9,22.9,5.6l0.1-1.1l-0.1,1.1
			c7.8,0.7,15.6,0.2,23.3-1.4c4.5-0.9,8.9-2.3,13.2-4l0,0l0,0c0,0,0.1,0,0.1,0l-0.2-0.6v0l0.2,0.6c9.5-3.8,18.1-9.5,25.5-16.7l0,0
			c0.1-0.1,0.2-0.2,0.2-0.2c0,0,0.1-0.1,0.1-0.1l0,0c7.2-7.4,12.8-16,16.7-25.5l-0.8-0.3h0l0.8,0.3c1.7-4.3,3.1-8.7,4-13.3
			c1.1-5.4,1.7-10.9,1.7-16.4c0-2.3-0.1-4.6-0.3-6.9c-0.7-7.9-2.6-15.6-5.6-22.9l-1,0.4l1-0.4c-2.1-5.1-4.8-10-7.9-14.6l-0.9,0.6
			l0.9-0.6c-8-11.7-19-21.1-31.9-27v0c-5.4-2.5-11.1-4.4-17-5.6c-1-0.2-2.1-0.4-3.1-0.6l-0.2,1.1l0.2-1.1
			C589,3.9,582.4,3.6,575.9,4.2 M653.4,53.7c2.9,7.1,4.7,14.5,5.4,22.1c-1.1,6.6-2.9,13.2-5.5,19.7c-2.1-5.2-5.6-10.3-10.5-15.6
			c3.9-10.1,5.9-20.3,5.9-29.9c0-1.1,0-2.3-0.1-3.4C650.3,48.9,652,51.2,653.4,53.7 M544.5,145.6c-6-5.5-10.8-12.6-14.2-21
			c9.9,2,21.2,0.8,32.9-3.4c5.3,7.8,10.6,14.3,15.7,19.3C567.1,144.8,555.3,146.6,544.5,145.6 M507.3,84.2L507.3,84.2z M508.4,84.1
			c1.2-6.7,3.8-13.4,7.9-20.2c0.6,1.1,1.3,2.1,2.2,3c1.6,1.6,3.6,2.8,6,3.5c-2.4,9.7-3.3,18.6-2.7,26.5l0,0c-3.4-1-6.3-2.7-8.6-5
			C511.1,89.8,509.5,87.2,508.4,84.1 M597.5,23.4c0.2,0,0.4,0,0.7,0.1c1.5,7.2,0.2,16.2-3.7,25.5c-7.8-2.8-16.3-5.3-25.5-7.3
			c1.8-4.3,2.8-8.5,2.8-12.3c0-1.1-0.1-2.2-0.3-3.3C581,23.7,589.7,22.8,597.5,23.4 M640.2,80.5C635.1,93,627.1,105,617,115.3
			l-17.8-17.8c9.6-9.8,17.1-21.1,21.7-32.8C628.7,70,635.2,75.3,640.2,80.5 M524.1,97.6l-0.1-0.8c-0.6-7.7,0.3-16.4,2.6-25.9
			c4.6,0.7,10-0.1,15.6-2.5c2,9.1,4.5,17.7,7.3,25.5C540.3,97.8,531.3,99.1,524.1,97.6 M517.7,61.8c6.4-9.9,14.1-17,17.1-19.6
			c0,0,0,0.1,0.1,0.1c0,0,0,0,0,0c0,0,0,0,0,0c0,0,0,0,0.1,0.1c0,0,0.1,0.1,0.2,0.1c-1.6,3.1-6.7,13.4-10,25.9c-2-0.6-3.7-1.6-5-2.9
			C519.1,64.4,518.2,63.2,517.7,61.8 M559.7,16.2c-10.1,6.8-17.1,14.8-19.1,17.2c-0.1,0-0.2,0-0.3,0c0.5-2.9,2-9.7,6.9-15.9
			C551.8,15.9,556.1,15.5,559.7,16.2 M593.6,51c-3.9,8.4-9.7,16.7-16.8,24l-18.1-18.1c3.9-4.1,7.1-8.6,9.4-13.2
			C577.2,45.7,585.8,48.1,593.6,51 M527.2,68.8c3.4-12.7,8.7-23.2,10-25.7c0,0,0.1,0,0.1,0c0.2,0,0.4,0,0.6-0.1c0,0,0.1,0,0.1,0
			c0.4,3.3,1.5,12.3,3.8,23.2C536.5,68.6,531.4,69.5,527.2,68.8 M541.5,37.1c0,0,0,0.1,0,0.2c-0.1,0.2-0.1,0.4-0.2,0.6
			c0,0.1-0.1,0.1-0.1,0.2c-0.1,0.2-0.3,0.4-0.4,0.7c0,0,0,0,0,0c-0.2,0.3-0.4,0.5-0.6,0.7c-0.1,0.1-0.2,0.2-0.3,0.2
			c-0.1,0.1-0.3,0.3-0.4,0.4c0,0,0,0-0.1,0c-0.2,0.1-0.3,0.2-0.5,0.3c0,0-0.1,0-0.1,0c-0.1,0.1-0.3,0.2-0.4,0.2
			c-0.1,0-0.1,0-0.2,0.1c-0.1,0-0.2,0.1-0.3,0.1c-0.1,0-0.2,0-0.3,0.1c0,0-0.1,0-0.1,0c-0.4,0.1-0.8,0-0.9-0.2c0,0,0,0,0,0
			c-0.1-0.1-0.1-0.2-0.2-0.3c0,0,0-0.1,0-0.1c0-0.2,0-0.4,0-0.6c0,0,0,0,0,0c0.1-0.5,0.3-1,0.7-1.6c0,0,0-0.1,0.1-0.1
			c0.2-0.3,0.4-0.6,0.7-0.9v0c0.3-0.3,0.6-0.5,0.8-0.7c0.1,0,0.1-0.1,0.2-0.1c0.5-0.4,1.1-0.6,1.5-0.7c0,0,0.1,0,0.1,0
			c0.2,0,0.4,0,0.5,0c0,0,0.1,0,0.1,0c0.2,0,0.3,0.1,0.4,0.2c0.1,0.1,0.2,0.4,0.2,0.7C541.5,36.7,541.5,36.9,541.5,37.1 M565.9,43.2
			c-2.2,4.3-5.2,8.4-8.8,12.2l-15-15c0.2-0.2,0.3-0.4,0.5-0.6c0.1-0.1,0.1-0.2,0.2-0.3C545.2,39.7,554.4,40.7,565.9,43.2 M540.2,42
			c0.1-0.1,0.2-0.1,0.3-0.2l15.1,15.1c-3.6,3.4-7.7,6.3-11.8,8.4c-2.4-11.5-3.5-20.7-3.7-23.1C540.1,42.1,540.1,42.1,540.2,42
			 M544.2,67.5c4.5-2.2,8.9-5.3,12.8-9.1l18.1,18.1c-7.3,7-15.4,12.7-23.6,16.5C548.7,85.2,546.3,76.6,544.2,67.5 M543.6,37.4
			c0-0.1,0-0.1,0-0.2c0-0.2,0.1-0.4,0.1-0.6c2.5-1.3,13-6.6,25.7-10c0.6,4.2-0.3,9.3-2.6,14.6C555.8,38.8,546.9,37.7,543.6,37.4
			 M538,34.2c-0.3,0.1-0.5,0.3-0.8,0.5c0,0,0,0-0.1,0c-0.2,0.1-0.3,0.2-0.5,0.3l-6.6-6.6c4.1-4,8.7-7.2,13.3-9.3
			C539.3,25.7,538.3,32.2,538,34.2 M535.3,36.6c0,0-0.1,0.1-0.1,0.1c-0.2,0.2-0.3,0.5-0.5,0.7c-2,0.2-8.5,1.3-15.1,5.4
			c2.1-4.5,5.2-8.9,9-12.9L535.3,36.6z M552.3,95c8.6-3.9,16.9-9.7,24.4-17l19.3,19.4c-9.6,9.4-20.7,16.6-32.1,21.1
			C559.6,111.9,555.7,104.1,552.3,95 M565.2,120.3c11.5-4.6,22.7-11.9,32.4-21.4l17.9,17.9c-10.2,9.9-22.1,17.8-34.4,22.8
			C575.9,134.6,570.6,128.1,565.2,120.3 M619.1,63.4c-4.5,11.6-11.9,22.8-21.4,32.5l-19.4-19.4c7.4-7.6,13.4-16.1,17.4-24.8
			C604.6,55.1,612.5,59,619.1,63.4 M568.9,24.5c-12.5,3.3-22.8,8.4-25.9,10c-0.1-0.1-0.1-0.2-0.2-0.2c0,0,0,0,0,0h0
			c0,0-0.1,0-0.1-0.1c2.6-3,9.7-10.7,19.6-17.1c1.4,0.6,2.6,1.4,3.6,2.4C567.4,20.8,568.3,22.5,568.9,24.5 M545.9,15.7
			c-0.8,0.3-1.6,0.6-2.3,0.9c1-0.6,2-1.1,3-1.7C546.3,15.2,546.1,15.5,545.9,15.7 M516.3,45.3c-0.2,0.2-0.5,0.4-0.7,0.6
			c0.5-1,1.1-2,1.7-3C516.9,43.8,516.6,44.5,516.3,45.3 M518.1,46.6c6.2-4.9,13-6.4,15.9-6.9c0,0.1,0,0.2,0,0.3
			c-2.4,2-10.3,9-17.2,19.1C516.1,55.5,516.5,51.2,518.1,46.6 M550.3,95.9c3.4,9,7.3,16.8,11.6,23.4c-11.7,4.2-22.9,5.2-32.6,2.9
			c-2.4-6.6-4.1-14.1-5-22.3C531.8,101.2,540.9,99.8,550.3,95.9 M582.8,141.2c12.3-5.1,24.1-13,34.2-22.9l12.4,12.4
			c-9.1,8.8-19.3,15.8-30.4,20.7C593.6,149.6,588.3,146.2,582.8,141.2 M602.2,152.3c10.5-5,20.1-11.7,28.7-20.1l5.2,5.2
			c-7,6.6-15,11.8-23.9,15.4C608.8,153.2,605.5,153,602.2,152.3 M618.5,116.8c10.1-10.2,18.1-22.2,23.3-34.6
			c5,5.5,8.4,10.9,10.2,16.2c-5,11.3-12.1,21.6-21.1,30.8L618.5,116.8z M647.2,43.4L647.2,43.4L647.2,43.4z M646.2,43.9
			c1.1,10.8-0.7,22.6-5.1,34.4c-5.1-5.1-11.5-10.4-19.3-15.7c2.9-8,4.4-15.8,4.4-23c0-3.4-0.3-6.7-1-9.8
			C633.5,33.1,640.6,37.9,646.2,43.9 M622.7,28.7c2.3,9.7,1.3,20.9-2.9,32.6c-6.6-4.3-14.4-8.2-23.4-11.6c2.9-7,4.5-13.9,4.5-20
			c0-2.1-0.2-4.1-0.5-6C608.6,24.6,616.1,26.3,622.7,28.7 M571,23.9c-0.7-2.3-1.8-4.4-3.5-6c-0.9-0.9-1.9-1.6-3-2.2
			c6.7-4,13.5-6.7,20.2-7.9c3,1.1,5.6,2.7,7.8,4.8c2.3,2.3,4,5.3,5,8.7c0,0,0,0,0,0C589.7,20.6,580.7,21.5,571,23.9 M576,6.3
			c1.4,0,2.7,0.1,4,0.3c-5.9,1.6-11.9,4.2-17.9,8c-3.5-1.2-7.7-1.2-12.2-0.2c0.6-0.6,1.3-1.3,2-1.9c1.2-0.6,2.4-1.2,3.7-1.7
			C562.1,8.5,569,6.9,576,6.3 M548.3,13C548.3,13,548.3,13,548.3,13l-0.1-0.1L548.3,13z M546.8,14.6
			C546.8,14.6,546.8,14.6,546.8,14.6l-0.4-0.8L546.8,14.6z M515.2,46.3C515.2,46.3,515.2,46.3,515.2,46.3l-0.8-0.4L515.2,46.3z
			 M511.5,55c0.5-1.2,1.1-2.4,1.7-3.7c0.6-0.7,1.2-1.3,1.9-2c-1.1,4.6-1,8.7,0.2,12.2c-3.7,5.9-6.4,11.9-8,17.9
			c-0.2-1.3-0.3-2.6-0.3-4C507.5,68.4,509.1,61.5,511.5,55 M508.3,97.6c-0.2-1-0.4-2-0.6-3c-0.1-2.1-0.1-4.3,0.1-6.4
			c1,1.9,2.3,3.7,3.8,5.2c2.8,2.8,6.3,4.8,10.4,5.9c0.8,8.1,2.4,15.5,4.7,22.1c-5-1.6-9.4-4.1-13-7.5
			C511.4,108.7,509.5,103.3,508.3,97.6 M516.1,118.6c3.4,2.4,7.3,4.2,11.6,5.3c3.2,8.3,7.6,15.4,13.2,21.2c-0.3-0.1-0.7-0.1-1-0.1
			C530,138.1,521.8,129.1,516.1,118.6 M554.3,152.8c-2.5-1.4-4.9-3.1-7.1-4.8c10.6,0.5,22.1-1.4,33.4-5.8
			c5.3,4.9,10.4,8.4,15.6,10.5c-6.4,2.6-13,4.5-19.7,5.5C568.9,157.5,561.4,155.7,554.3,152.8 M585.5,158.5
			c4.6-1.2,9.1-2.8,13.6-4.7c2.3,0.7,4.5,1.2,6.9,1.4c-2.2,0.7-4.5,1.3-6.7,1.8C594.7,157.8,590.1,158.3,585.5,158.5 M637.7,135.9
			l-5.2-5.2c8.5-8.7,15.4-18.5,20.4-29.1c0.7,3.3,0.9,6.6,0.5,10.1C649.8,120.7,644.5,128.9,637.7,135.9 M655.7,105.4
			c-0.2-2.3-0.7-4.6-1.4-6.9c1.9-4.5,3.5-9,4.7-13.6c-0.1,4.6-0.7,9.2-1.6,13.7C657,100.9,656.4,103.2,655.7,105.4 M645.6,39.3
			c0.1,0.3,0.1,0.7,0.2,1c-5.8-5.6-12.9-10-21.2-13.2c-1.2-4.3-3-8.2-5.3-11.6C629.7,21.2,638.7,29.4,645.6,39.3 M614.5,13.1
			c3.4,3.6,5.9,8,7.5,13c-6.6-2.3-14-3.8-22.1-4.7c-1.1-4.1-3.1-7.6-5.9-10.4c-1.5-1.5-3.3-2.8-5.2-3.8c2.1-0.2,4.3-0.2,6.4-0.1
			c1,0.2,2,0.3,3,0.6C603.9,8.9,609.4,10.8,614.5,13.1"/>
		<path class="st2" d="M518.4,164.6c-45.4,0-82.3-36.8-82.3-82.3c0-45.4,36.8-82.3,82.3-82.3c45.4,0,82.3,36.8,82.3,82.3
			C600.7,127.7,563.8,164.6,518.4,164.6"/>
		<path class="st1" d="M511.4,4.2c-7.2,0.6-14.3,2.2-21.1,4.7c-1.1,0.4-2.2,0.9-3.3,1.3l0.1,0.2c0,0,0,0,0,0l-0.1-0.2
			c-1.2,0.5-2.4,1.1-3.6,1.7h0l0,0c0,0,0,0,0,0h0l-0.7,0.3l0.5,1l-0.5-1l-1.2,0.6h0c-6.8,3.6-13.1,8.1-18.6,13.5l0,0
			c-0.1,0.1-0.1,0.1-0.2,0.2c-0.1,0.1-0.1,0.1-0.2,0.2l0,0c-5.4,5.5-9.9,11.8-13.5,18.6h0c-0.2,0.4-0.4,0.8-0.6,1.2l1,0.5l-1-0.5
			l-0.3,0.7l1,0.5l-1-0.5c-0.6,1.2-1.1,2.4-1.7,3.7c-0.5,1.1-0.9,2.2-1.3,3.3l1,0.4l-1-0.4c-2.5,6.8-4.1,13.9-4.7,21.1
			c-0.5,6.5-0.2,13.2,0.9,19.7l1.1-0.2l-1.1,0.2c0.2,1,0.4,2.1,0.6,3.1c1.2,5.9,3.1,11.6,5.6,17l0.9-0.4l-0.9,0.4
			c5.9,12.8,15.3,23.8,27,31.8l0.6-0.9l-0.6,0.9c4.6,3.1,9.5,5.8,14.6,7.9c7.3,3,15.1,4.9,22.9,5.6l0.1-1.1l-0.1,1.1
			c7.8,0.7,15.6,0.2,23.3-1.4c4.5-0.9,8.9-2.3,13.2-4l0,0l0,0c0,0,0.1,0,0.1,0l-0.2-0.6v0l0.2,0.6c9.5-3.8,18.1-9.5,25.5-16.7l0,0
			c0.1-0.1,0.2-0.2,0.2-0.2c0,0,0.1-0.1,0.1-0.1l0,0c7.2-7.4,12.8-16,16.7-25.5l-0.8-0.3h0l0.8,0.3c1.7-4.3,3.1-8.7,4-13.3
			c1.1-5.4,1.7-10.9,1.7-16.4c0-2.3-0.1-4.6-0.3-6.9c-0.7-7.9-2.6-15.6-5.6-22.9l-1,0.4l1-0.4c-2.1-5.1-4.8-10-7.9-14.6l-0.9,0.6
			l0.9-0.6c-8-11.7-19-21.1-31.9-27v0c-5.4-2.5-11.1-4.4-17-5.6c-1-0.2-2.1-0.4-3.1-0.6l-0.2,1.1l0.2-1.1
			C524.5,3.9,517.9,3.6,511.4,4.2 M588.9,53.7c2.9,7.1,4.7,14.5,5.4,22.1c-1.1,6.6-2.9,13.2-5.5,19.7c-2.1-5.2-5.6-10.3-10.5-15.6
			c3.9-10.1,5.9-20.3,5.9-29.9c0-1.1,0-2.3-0.1-3.4C585.8,48.9,587.5,51.2,588.9,53.7 M480,145.6c-6-5.5-10.8-12.6-14.2-21
			c9.9,2,21.2,0.8,32.9-3.4c5.3,7.8,10.6,14.3,15.7,19.3C502.6,144.8,490.8,146.6,480,145.6 M442.8,84.2L442.8,84.2z M443.9,84.1
			c1.2-6.7,3.8-13.4,7.9-20.2c0.6,1.1,1.3,2.1,2.2,3c1.6,1.6,3.6,2.8,6,3.5c-2.4,9.7-3.3,18.6-2.7,26.5l0,0c-3.4-1-6.3-2.7-8.6-5
			C446.6,89.8,445,87.2,443.9,84.1 M533,23.4c0.2,0,0.4,0,0.7,0.1c1.5,7.2,0.2,16.2-3.7,25.5c-7.8-2.8-16.3-5.3-25.5-7.3
			c1.8-4.3,2.8-8.5,2.8-12.3c0-1.1-0.1-2.2-0.3-3.3C516.5,23.7,525.2,22.8,533,23.4 M575.7,80.5c-5.1,12.5-13.1,24.5-23.2,34.8
			l-17.8-17.8c9.6-9.8,17.1-21.1,21.7-32.8C564.2,70,570.7,75.3,575.7,80.5 M459.6,97.6l-0.1-0.8c-0.6-7.7,0.3-16.4,2.6-25.9
			c4.6,0.7,10-0.1,15.6-2.5c2,9.1,4.5,17.7,7.3,25.5C475.8,97.8,466.8,99.1,459.6,97.6 M453.2,61.8c6.4-9.9,14.1-17,17.1-19.6
			c0,0,0,0.1,0.1,0.1c0,0,0,0,0,0c0,0,0,0,0,0c0,0,0,0,0.1,0.1c0,0,0.1,0.1,0.2,0.1c-1.6,3.1-6.7,13.4-10,25.9c-2-0.6-3.7-1.6-5-2.9
			C454.6,64.4,453.8,63.2,453.2,61.8 M495.2,16.2c-10.1,6.8-17.1,14.8-19.1,17.2c-0.1,0-0.2,0-0.3,0c0.5-2.9,2-9.7,6.9-15.9
			C487.3,15.9,491.6,15.5,495.2,16.2 M529.1,51c-3.9,8.4-9.7,16.7-16.8,24l-18.1-18.1c3.9-4.1,7.1-8.6,9.4-13.2
			C512.7,45.7,521.3,48.1,529.1,51 M462.7,68.8c3.4-12.7,8.7-23.2,10-25.7c0,0,0.1,0,0.1,0c0.2,0,0.4,0,0.6-0.1c0,0,0.1,0,0.1,0
			c0.4,3.3,1.5,12.3,3.8,23.2C472,68.6,466.9,69.5,462.7,68.8 M477,37.1c0,0,0,0.1,0,0.2c-0.1,0.2-0.1,0.4-0.2,0.6
			c0,0.1-0.1,0.1-0.1,0.2c-0.1,0.2-0.3,0.4-0.4,0.7c0,0,0,0,0,0c-0.2,0.3-0.4,0.5-0.6,0.7c-0.1,0.1-0.2,0.2-0.3,0.2
			c-0.1,0.1-0.3,0.3-0.4,0.4c0,0,0,0-0.1,0c-0.2,0.1-0.3,0.2-0.5,0.3c0,0-0.1,0-0.1,0c-0.1,0.1-0.3,0.2-0.4,0.2
			c-0.1,0-0.1,0-0.2,0.1c-0.1,0-0.2,0.1-0.3,0.1c-0.1,0-0.2,0-0.3,0.1c0,0-0.1,0-0.1,0c-0.4,0.1-0.8,0-0.9-0.2c0,0,0,0,0,0
			c-0.1-0.1-0.1-0.2-0.2-0.3c0,0,0-0.1,0-0.1c0-0.2,0-0.4,0-0.6c0,0,0,0,0,0c0.1-0.5,0.3-1,0.7-1.6c0,0,0-0.1,0.1-0.1
			c0.2-0.3,0.4-0.6,0.7-0.9v0c0.3-0.3,0.6-0.5,0.8-0.7c0.1,0,0.1-0.1,0.2-0.1c0.5-0.4,1.1-0.6,1.5-0.7c0,0,0.1,0,0.1,0
			c0.2,0,0.4,0,0.5,0c0,0,0.1,0,0.1,0c0.2,0,0.3,0.1,0.4,0.2c0.1,0.1,0.2,0.4,0.2,0.7C477,36.7,477,36.9,477,37.1 M501.4,43.2
			c-2.2,4.3-5.2,8.4-8.8,12.2l-15-15c0.2-0.2,0.3-0.4,0.5-0.6c0.1-0.1,0.1-0.2,0.2-0.3C480.7,39.7,489.9,40.7,501.4,43.2 M475.7,42
			c0.1-0.1,0.2-0.1,0.3-0.2l15.1,15.1c-3.6,3.4-7.7,6.3-11.8,8.4c-2.4-11.5-3.5-20.7-3.7-23.1C475.6,42.1,475.6,42.1,475.7,42
			 M479.7,67.5c4.5-2.2,8.9-5.3,12.8-9.1l18.1,18.1c-7.3,7-15.4,12.7-23.6,16.5C484.2,85.2,481.8,76.6,479.7,67.5 M479.1,37.4
			c0-0.1,0-0.1,0-0.2c0-0.2,0.1-0.4,0.1-0.6c2.5-1.3,13-6.6,25.7-10c0.6,4.2-0.3,9.3-2.6,14.6C491.3,38.8,482.4,37.7,479.1,37.4
			 M473.5,34.2c-0.3,0.1-0.5,0.3-0.8,0.5c0,0,0,0-0.1,0c-0.2,0.1-0.3,0.2-0.5,0.3l-6.6-6.6c4.1-4,8.7-7.2,13.3-9.3
			C474.8,25.7,473.8,32.2,473.5,34.2 M470.8,36.6c0,0-0.1,0.1-0.1,0.1c-0.2,0.2-0.3,0.5-0.5,0.7c-2,0.2-8.5,1.3-15.1,5.4
			c2.1-4.5,5.2-8.9,9-12.9L470.8,36.6z M487.8,95c8.6-3.9,16.9-9.7,24.4-17l19.3,19.4c-9.6,9.4-20.7,16.6-32.1,21.1
			C495.1,111.9,491.2,104.1,487.8,95 M500.7,120.3c11.5-4.6,22.7-11.9,32.4-21.4l17.9,17.9c-10.2,9.9-22.1,17.8-34.4,22.8
			C511.4,134.6,506.1,128.1,500.7,120.3 M554.6,63.4c-4.5,11.6-11.9,22.8-21.4,32.5l-19.4-19.4c7.4-7.6,13.4-16.1,17.4-24.8
			C540.1,55.1,548,59,554.6,63.4 M504.4,24.5c-12.5,3.3-22.8,8.4-25.9,10c-0.1-0.1-0.1-0.2-0.2-0.2c0,0,0,0,0,0h0c0,0-0.1,0-0.1-0.1
			c2.6-3,9.7-10.7,19.6-17.1c1.4,0.6,2.6,1.4,3.6,2.4C502.9,20.8,503.8,22.5,504.4,24.5 M481.4,15.7c-0.8,0.3-1.6,0.6-2.3,0.9
			c1-0.6,2-1.1,3-1.7C481.8,15.2,481.6,15.5,481.4,15.7 M451.8,45.3c-0.2,0.2-0.5,0.4-0.7,0.6c0.5-1,1.1-2,1.7-3
			C452.4,43.8,452.1,44.5,451.8,45.3 M453.6,46.6c6.2-4.9,13-6.4,15.9-6.9c0,0.1,0,0.2,0,0.3c-2.4,2-10.3,9-17.2,19.1
			C451.6,55.5,452,51.2,453.6,46.6 M485.8,95.9c3.4,9,7.3,16.8,11.6,23.4c-11.7,4.2-22.9,5.2-32.6,2.9c-2.4-6.6-4.1-14.1-5-22.3
			C467.3,101.2,476.4,99.8,485.8,95.9 M518.3,141.2c12.3-5.1,24.1-13,34.2-22.9l12.4,12.4c-9.1,8.8-19.3,15.8-30.4,20.7
			C529.1,149.6,523.8,146.2,518.3,141.2 M537.7,152.3c10.5-5,20.1-11.7,28.7-20.1l5.2,5.2c-7,6.6-15,11.8-23.9,15.4
			C544.3,153.2,541,153,537.7,152.3 M554,116.8c10.1-10.2,18.1-22.2,23.3-34.6c5,5.5,8.4,10.9,10.2,16.2
			c-5,11.3-12.1,21.6-21.1,30.8L554,116.8z M582.7,43.4L582.7,43.4L582.7,43.4z M581.7,43.9c1.1,10.8-0.7,22.6-5.1,34.4
			c-5.1-5.1-11.5-10.4-19.3-15.7c2.9-8,4.4-15.8,4.4-23c0-3.4-0.3-6.7-1-9.8C569,33.1,576.1,37.9,581.7,43.9 M558.2,28.7
			c2.3,9.7,1.3,20.9-2.9,32.6c-6.6-4.3-14.4-8.2-23.4-11.6c2.9-7,4.5-13.9,4.5-20c0-2.1-0.2-4.1-0.5-6
			C544.1,24.6,551.6,26.3,558.2,28.7 M506.5,23.9c-0.7-2.3-1.8-4.4-3.5-6c-0.9-0.9-1.9-1.6-3-2.2c6.7-4,13.5-6.7,20.2-7.9
			c3,1.1,5.6,2.7,7.8,4.8c2.3,2.3,4,5.3,5,8.7c0,0,0,0,0,0C525.2,20.6,516.2,21.5,506.5,23.9 M511.5,6.3c1.4,0,2.7,0.1,4,0.3
			c-5.9,1.6-11.9,4.2-17.9,8c-3.5-1.2-7.7-1.2-12.2-0.2c0.6-0.6,1.3-1.3,2-1.9c1.2-0.6,2.4-1.2,3.7-1.7
			C497.6,8.5,504.5,6.9,511.5,6.3 M483.8,13C483.8,13,483.8,13,483.8,13l-0.1-0.1L483.8,13z M482.4,14.6
			C482.4,14.6,482.3,14.6,482.4,14.6l-0.4-0.8L482.4,14.6z M450.7,46.3C450.7,46.3,450.7,46.3,450.7,46.3l-0.8-0.4L450.7,46.3z
			 M447,55c0.5-1.2,1.1-2.4,1.7-3.7c0.6-0.7,1.2-1.3,1.9-2c-1.1,4.6-1,8.7,0.2,12.2c-3.7,5.9-6.4,11.9-8,17.9
			c-0.2-1.3-0.3-2.6-0.3-4C443,68.4,444.6,61.5,447,55 M443.8,97.6c-0.2-1-0.4-2-0.6-3c-0.1-2.1-0.1-4.3,0.1-6.4
			c1,1.9,2.3,3.7,3.8,5.2c2.8,2.8,6.3,4.8,10.4,5.9c0.8,8.1,2.4,15.5,4.7,22.1c-5-1.6-9.4-4.1-13-7.5
			C446.9,108.7,445,103.3,443.8,97.6 M451.6,118.6c3.4,2.4,7.3,4.2,11.6,5.3c3.2,8.3,7.6,15.4,13.2,21.2c-0.3-0.1-0.7-0.1-1-0.1
			C465.5,138.1,457.3,129.1,451.6,118.6 M489.8,152.8c-2.5-1.4-4.9-3.1-7.1-4.8c10.6,0.5,22.1-1.4,33.4-5.8
			c5.3,4.9,10.4,8.4,15.6,10.5c-6.4,2.6-13,4.5-19.7,5.5C504.4,157.5,496.9,155.7,489.8,152.8 M521,158.5c4.6-1.2,9.1-2.8,13.6-4.7
			c2.3,0.7,4.5,1.2,6.9,1.4c-2.2,0.7-4.5,1.3-6.7,1.8C530.2,157.8,525.6,158.3,521,158.5 M573.2,135.9l-5.2-5.2
			c8.5-8.7,15.4-18.5,20.4-29.1c0.7,3.3,0.9,6.6,0.5,10.1C585.3,120.7,580,128.9,573.2,135.9 M591.2,105.4c-0.2-2.3-0.7-4.6-1.4-6.9
			c1.9-4.5,3.5-9,4.7-13.6c-0.1,4.6-0.7,9.2-1.6,13.7C592.5,100.9,591.9,103.2,591.2,105.4 M581.1,39.3c0.1,0.3,0.1,0.7,0.2,1
			c-5.8-5.6-12.9-10-21.2-13.2c-1.2-4.3-3-8.2-5.3-11.6C565.2,21.2,574.2,29.4,581.1,39.3 M550,13.1c3.4,3.6,5.9,8,7.5,13
			c-6.6-2.3-14-3.8-22.1-4.7c-1.1-4.1-3.1-7.6-5.9-10.4c-1.5-1.5-3.3-2.8-5.2-3.8c2.1-0.2,4.3-0.2,6.4-0.1c1,0.2,2,0.3,3,0.6
			C539.4,8.9,544.9,10.8,550,13.1"/>
		<path class="st3" d="M453.9,164.6c-45.4,0-82.3-36.8-82.3-82.3c0-45.4,36.8-82.3,82.3-82.3c45.4,0,82.3,36.8,82.3,82.3
			C536.2,127.7,499.3,164.6,453.9,164.6"/>
		<path class="st1" d="M446.9,4.2c-7.2,0.6-14.3,2.2-21.1,4.7c-1.1,0.4-2.2,0.9-3.3,1.3l0.1,0.2c0,0,0,0,0,0l-0.1-0.2
			c-1.2,0.5-2.4,1.1-3.6,1.7h0l0,0c0,0,0,0,0,0h0l-0.7,0.3l0.5,1l-0.5-1l-1.2,0.6h0c-6.8,3.6-13.1,8.1-18.6,13.5l0,0
			c-0.1,0.1-0.1,0.1-0.2,0.2c-0.1,0.1-0.1,0.1-0.2,0.2l0,0c-5.4,5.5-9.9,11.8-13.5,18.6h0c-0.2,0.4-0.4,0.8-0.6,1.2l1,0.5l-1-0.5
			l-0.3,0.7l1,0.5l-1-0.5c-0.6,1.2-1.1,2.4-1.7,3.7c-0.5,1.1-0.9,2.2-1.3,3.3l1,0.4l-1-0.4c-2.5,6.8-4.1,13.9-4.7,21.1
			c-0.5,6.5-0.2,13.2,0.9,19.7l1.1-0.2l-1.1,0.2c0.2,1,0.4,2.1,0.6,3.1c1.2,5.9,3.1,11.6,5.6,17l0.9-0.4l-0.9,0.4
			c5.9,12.8,15.3,23.8,27,31.8l0.6-0.9l-0.6,0.9c4.6,3.1,9.5,5.8,14.6,7.9c7.3,3,15.1,4.9,22.9,5.6l0.1-1.1l-0.1,1.1
			c7.8,0.7,15.6,0.2,23.3-1.4c4.5-0.9,8.9-2.3,13.2-4l0,0l0,0c0,0,0.1,0,0.1,0l-0.2-0.6v0l0.2,0.6c9.5-3.8,18.1-9.5,25.5-16.7l0,0
			c0.1-0.1,0.2-0.2,0.2-0.2c0,0,0.1-0.1,0.1-0.1l0,0c7.2-7.4,12.8-16,16.7-25.5l-0.8-0.3h0l0.8,0.3c1.7-4.3,3.1-8.7,4-13.3
			c1.1-5.4,1.7-10.9,1.7-16.4c0-2.3-0.1-4.6-0.3-6.9c-0.7-7.9-2.6-15.6-5.6-22.9l-1,0.4l1-0.4c-2.1-5.1-4.8-10-7.9-14.6l-0.9,0.6
			l0.9-0.6c-8-11.7-19-21.1-31.9-27l0,0c-5.4-2.5-11.1-4.4-17-5.6c-1-0.2-2.1-0.4-3.1-0.6l-0.2,1.1l0.2-1.1
			C460,3.9,453.4,3.6,446.9,4.2 M524.4,53.7c2.9,7.1,4.7,14.5,5.4,22.1c-1.1,6.6-2.9,13.2-5.5,19.7c-2.1-5.2-5.6-10.3-10.5-15.6
			c3.9-10.1,5.9-20.3,5.9-29.9c0-1.1,0-2.3-0.1-3.4C521.3,48.9,523,51.2,524.4,53.7 M415.5,145.6c-6-5.5-10.8-12.6-14.2-21
			c9.9,2,21.2,0.8,32.9-3.4c5.3,7.8,10.6,14.3,15.7,19.3C438.1,144.8,426.3,146.6,415.5,145.6 M378.3,84.2L378.3,84.2z M379.4,84.1
			c1.2-6.7,3.8-13.4,7.9-20.2c0.6,1.1,1.3,2.1,2.2,3c1.6,1.6,3.6,2.8,6,3.5c-2.4,9.7-3.3,18.6-2.7,26.5l0,0c-3.4-1-6.3-2.7-8.6-5
			C382.1,89.8,380.5,87.2,379.4,84.1 M468.5,23.4c0.2,0,0.4,0,0.7,0.1c1.5,7.2,0.2,16.2-3.7,25.5c-7.8-2.8-16.3-5.3-25.5-7.3
			c1.8-4.3,2.8-8.5,2.8-12.3c0-1.1-0.1-2.2-0.3-3.3C452,23.7,460.7,22.8,468.5,23.4 M511.2,80.5C506.1,93,498.1,105,488,115.3
			l-17.8-17.8c9.6-9.8,17.1-21.1,21.7-32.8C499.7,70,506.2,75.3,511.2,80.5 M395.1,97.6l-0.1-0.8c-0.6-7.7,0.3-16.4,2.6-25.9
			c4.6,0.7,10-0.1,15.6-2.5c2,9.1,4.5,17.7,7.3,25.5C411.3,97.8,402.3,99.1,395.1,97.6 M388.7,61.8c6.4-9.9,14.1-17,17.1-19.6
			c0,0,0,0.1,0.1,0.1c0,0,0,0,0,0c0,0,0,0,0,0c0,0,0,0,0.1,0.1c0,0,0.1,0.1,0.2,0.1c-1.6,3.1-6.7,13.4-10,25.9c-2-0.6-3.7-1.6-5-2.9
			C390.1,64.4,389.3,63.2,388.7,61.8 M430.7,16.2c-10.1,6.8-17.1,14.8-19.1,17.2c-0.1,0-0.2,0-0.3,0c0.5-2.9,2-9.7,6.9-15.9
			C422.8,15.9,427.1,15.5,430.7,16.2 M464.6,51c-3.9,8.4-9.7,16.7-16.8,24l-18.1-18.1c3.9-4.1,7.1-8.6,9.4-13.2
			C448.2,45.7,456.8,48.1,464.6,51 M398.2,68.8c3.4-12.7,8.7-23.2,10-25.7c0,0,0.1,0,0.1,0c0.2,0,0.4,0,0.6-0.1c0,0,0.1,0,0.1,0
			c0.4,3.3,1.5,12.3,3.8,23.2C407.5,68.6,402.4,69.5,398.2,68.8 M412.5,37.1c0,0,0,0.1-0.1,0.2c-0.1,0.2-0.1,0.4-0.2,0.6
			c0,0.1-0.1,0.1-0.1,0.2c-0.1,0.2-0.3,0.4-0.4,0.7c0,0,0,0,0,0c-0.2,0.3-0.4,0.5-0.6,0.7c-0.1,0.1-0.2,0.2-0.3,0.2
			c-0.1,0.1-0.3,0.3-0.4,0.4c0,0,0,0-0.1,0c-0.2,0.1-0.3,0.2-0.5,0.3c0,0-0.1,0-0.1,0c-0.1,0.1-0.3,0.2-0.4,0.2
			c-0.1,0-0.1,0-0.2,0.1c-0.1,0-0.2,0.1-0.3,0.1c-0.1,0-0.2,0-0.3,0.1c0,0-0.1,0-0.1,0c-0.4,0.1-0.8,0-0.9-0.2c0,0,0,0,0,0
			c-0.1-0.1-0.1-0.2-0.2-0.3c0,0,0-0.1,0-0.1c0-0.2,0-0.4,0-0.6c0,0,0,0,0,0c0.1-0.5,0.3-1,0.7-1.6c0,0,0-0.1,0.1-0.1
			c0.2-0.3,0.4-0.6,0.7-0.9v0c0.3-0.3,0.6-0.5,0.8-0.7c0.1,0,0.1-0.1,0.2-0.1c0.5-0.4,1.1-0.6,1.5-0.7c0,0,0.1,0,0.1,0
			c0.2,0,0.4,0,0.5,0c0,0,0.1,0,0.1,0c0.2,0,0.3,0.1,0.4,0.2c0.1,0.1,0.2,0.4,0.2,0.7C412.5,36.7,412.5,36.9,412.5,37.1 M436.9,43.2
			c-2.2,4.3-5.2,8.4-8.8,12.2l-15-15c0.2-0.2,0.3-0.4,0.5-0.6c0.1-0.1,0.1-0.2,0.2-0.3C416.2,39.7,425.4,40.7,436.9,43.2 M411.2,42
			c0.1-0.1,0.2-0.1,0.3-0.2l15.1,15.1c-3.6,3.4-7.7,6.3-11.8,8.4c-2.4-11.5-3.5-20.7-3.7-23.1C411.1,42.1,411.1,42.1,411.2,42
			 M415.2,67.5c4.5-2.2,8.9-5.3,12.8-9.1l18.1,18.1c-7.3,7-15.4,12.7-23.6,16.5C419.7,85.2,417.3,76.6,415.2,67.5 M414.6,37.4
			c0-0.1,0-0.1,0-0.2c0-0.2,0.1-0.4,0.1-0.6c2.5-1.3,13-6.6,25.7-10c0.6,4.2-0.3,9.3-2.6,14.6C426.8,38.8,417.9,37.7,414.6,37.4
			 M409,34.2c-0.3,0.1-0.5,0.3-0.8,0.5c0,0,0,0-0.1,0c-0.2,0.1-0.3,0.2-0.5,0.3l-6.6-6.6c4.1-4,8.7-7.2,13.3-9.3
			C410.3,25.7,409.3,32.2,409,34.2 M406.3,36.6c0,0-0.1,0.1-0.1,0.1c-0.2,0.2-0.3,0.5-0.5,0.7c-2,0.2-8.5,1.3-15.1,5.4
			c2.1-4.5,5.2-8.9,9-12.9L406.3,36.6z M423.3,95c8.6-3.9,16.9-9.7,24.4-17l19.3,19.4c-9.6,9.4-20.7,16.6-32.1,21.1
			C430.6,111.9,426.7,104.1,423.3,95 M436.2,120.3c11.5-4.6,22.7-11.9,32.4-21.4l17.9,17.9c-10.2,9.9-22.1,17.8-34.4,22.8
			C446.9,134.6,441.6,128.1,436.2,120.3 M490.1,63.4c-4.5,11.6-11.9,22.8-21.4,32.5l-19.4-19.4c7.4-7.6,13.4-16.1,17.4-24.8
			C475.6,55.1,483.5,59,490.1,63.4 M439.9,24.5c-12.5,3.3-22.8,8.4-25.9,10c-0.1-0.1-0.1-0.2-0.2-0.2c0,0,0,0,0,0h0
			c0,0-0.1,0-0.1-0.1c2.6-3,9.7-10.7,19.6-17.1c1.4,0.6,2.6,1.4,3.6,2.4C438.4,20.8,439.3,22.5,439.9,24.5 M416.9,15.7
			c-0.8,0.3-1.6,0.6-2.3,0.9c1-0.6,2-1.1,3-1.7C417.3,15.2,417.1,15.5,416.9,15.7 M387.3,45.3c-0.2,0.2-0.5,0.4-0.7,0.6
			c0.5-1,1.1-2,1.7-3C387.9,43.8,387.6,44.5,387.3,45.3 M389.1,46.6c6.2-4.9,13-6.4,15.9-6.9c0,0.1,0,0.2,0,0.3
			c-2.4,2-10.3,9-17.2,19.1C387.1,55.5,387.5,51.2,389.1,46.6 M421.3,95.9c3.4,9,7.3,16.8,11.6,23.4c-11.7,4.2-22.9,5.2-32.6,2.9
			c-2.4-6.6-4.1-14.1-5-22.3C402.8,101.2,411.9,99.8,421.3,95.9 M453.8,141.2c12.3-5.1,24.1-13,34.2-22.9l12.4,12.4
			c-9.1,8.8-19.3,15.8-30.4,20.7C464.6,149.6,459.3,146.2,453.8,141.2 M473.2,152.3c10.5-5,20.1-11.7,28.7-20.1l5.2,5.2
			c-7,6.6-15,11.8-23.9,15.4C479.8,153.2,476.5,153,473.2,152.3 M489.5,116.8c10.1-10.2,18.1-22.2,23.3-34.6
			c5,5.5,8.4,10.9,10.2,16.2c-5,11.3-12.1,21.6-21.1,30.8L489.5,116.8z M518.2,43.4L518.2,43.4L518.2,43.4z M517.2,43.9
			c1.1,10.8-0.7,22.6-5.1,34.4c-5.1-5.1-11.5-10.4-19.3-15.7c2.9-8,4.4-15.8,4.4-23c0-3.4-0.3-6.7-1-9.8
			C504.5,33.1,511.6,37.9,517.2,43.9 M493.7,28.7c2.3,9.7,1.3,20.9-2.9,32.6c-6.6-4.3-14.4-8.2-23.4-11.6c2.9-7,4.5-13.9,4.5-20
			c0-2.1-0.2-4.1-0.5-6C479.6,24.6,487.1,26.3,493.7,28.7 M442,23.9c-0.7-2.3-1.8-4.4-3.5-6c-0.9-0.9-1.9-1.6-3-2.2
			c6.7-4,13.5-6.7,20.2-7.9c3,1.1,5.6,2.7,7.8,4.8c2.3,2.3,4,5.3,5,8.7c0,0,0,0,0,0C460.7,20.6,451.7,21.5,442,23.9 M447,6.3
			c1.4,0,2.7,0.1,4,0.3c-5.9,1.6-11.9,4.2-17.9,8c-3.5-1.2-7.7-1.2-12.2-0.2c0.6-0.6,1.3-1.3,2-1.9c1.2-0.6,2.4-1.2,3.7-1.7
			C433.1,8.5,440,6.9,447,6.3 M419.3,13C419.3,13,419.3,13,419.3,13l-0.1-0.1L419.3,13z M417.9,14.6
			C417.9,14.6,417.8,14.6,417.9,14.6l-0.4-0.8L417.9,14.6z M386.2,46.3C386.2,46.3,386.2,46.3,386.2,46.3l-0.8-0.4L386.2,46.3z
			 M382.5,55c0.5-1.2,1.1-2.4,1.7-3.7c0.6-0.7,1.2-1.3,1.9-2c-1.1,4.6-1,8.7,0.2,12.2c-3.7,5.9-6.4,11.9-8,17.9
			c-0.2-1.3-0.3-2.6-0.3-4C378.5,68.4,380.1,61.5,382.5,55 M379.3,97.6c-0.2-1-0.4-2-0.6-3c-0.1-2.1-0.1-4.3,0.1-6.4
			c1,1.9,2.3,3.7,3.8,5.2c2.8,2.8,6.3,4.8,10.4,5.9c0.8,8.1,2.4,15.5,4.7,22.1c-5-1.6-9.4-4.1-13-7.5
			C382.4,108.7,380.5,103.3,379.3,97.6 M387.1,118.6c3.4,2.4,7.3,4.2,11.6,5.3c3.2,8.3,7.6,15.4,13.2,21.2c-0.3-0.1-0.7-0.1-1-0.1
			C401,138.1,392.8,129.1,387.1,118.6 M425.3,152.8c-2.5-1.4-4.9-3.1-7.1-4.8c10.6,0.5,22.1-1.4,33.4-5.8
			c5.3,4.9,10.4,8.4,15.6,10.5c-6.4,2.6-13,4.5-19.7,5.5C439.9,157.5,432.4,155.7,425.3,152.8 M456.5,158.5
			c4.6-1.2,9.1-2.8,13.6-4.7c2.3,0.7,4.5,1.2,6.9,1.4c-2.2,0.7-4.5,1.3-6.7,1.8C465.7,157.8,461.1,158.3,456.5,158.5 M508.7,135.9
			l-5.2-5.2c8.5-8.7,15.4-18.5,20.4-29.1c0.7,3.3,0.9,6.6,0.5,10.1C520.8,120.7,515.5,128.9,508.7,135.9 M526.7,105.4
			c-0.2-2.3-0.7-4.6-1.4-6.9c1.9-4.5,3.5-9,4.7-13.6c-0.1,4.6-0.7,9.2-1.6,13.7C528,100.9,527.4,103.2,526.7,105.4 M516.6,39.3
			c0.1,0.3,0.1,0.7,0.2,1c-5.8-5.6-12.9-10-21.2-13.2c-1.2-4.3-3-8.2-5.3-11.6C500.7,21.2,509.7,29.4,516.6,39.3 M485.5,13.1
			c3.4,3.6,5.9,8,7.5,13c-6.6-2.3-14-3.8-22.1-4.7c-1.1-4.1-3.1-7.6-5.9-10.4c-1.5-1.5-3.3-2.8-5.2-3.8c2.1-0.2,4.3-0.2,6.4-0.1
			c1,0.2,2,0.3,3,0.6C474.9,8.9,480.4,10.8,485.5,13.1"/>
		<path class="st4" d="M393.9,164.6c-45.4,0-82.3-36.8-82.3-82.3c0-45.4,36.8-82.3,82.3-82.3c45.4,0,82.3,36.8,82.3,82.3
			C476.2,127.7,439.4,164.6,393.9,164.6"/>
		<path class="st1" d="M386.9,4.2c-7.2,0.6-14.3,2.2-21.1,4.7c-1.1,0.4-2.2,0.9-3.3,1.3l0.1,0.2c0,0,0,0,0,0l-0.1-0.2
			c-1.2,0.5-2.4,1.1-3.6,1.7h0l0,0c0,0,0,0,0,0h0l-0.7,0.3l0.5,1l-0.5-1l-1.2,0.6h0c-6.8,3.6-13.1,8.1-18.6,13.5l0,0
			c-0.1,0.1-0.1,0.1-0.2,0.2c-0.1,0.1-0.1,0.1-0.2,0.2l0,0c-5.4,5.5-9.9,11.8-13.5,18.6h0c-0.2,0.4-0.4,0.8-0.6,1.2l1,0.5l-1-0.5
			l-0.3,0.7l1,0.5l-1-0.5c-0.6,1.2-1.1,2.4-1.7,3.7c-0.5,1.1-0.9,2.2-1.3,3.3l1,0.4l-1-0.4c-2.5,6.8-4.1,13.9-4.7,21.1
			c-0.5,6.5-0.2,13.2,0.9,19.7l1.1-0.2l-1.1,0.2c0.2,1,0.4,2.1,0.6,3.1c1.2,5.9,3.1,11.6,5.6,17l0.9-0.4l-0.9,0.4
			c5.9,12.8,15.3,23.8,27,31.8l0.6-0.9l-0.6,0.9c4.6,3.1,9.5,5.8,14.6,7.9c7.3,3,15.1,4.9,22.9,5.6l0.1-1.1l-0.1,1.1
			c7.8,0.7,15.6,0.2,23.3-1.4c4.5-0.9,8.9-2.3,13.2-4l0,0l0,0c0,0,0.1,0,0.1,0l-0.2-0.6v0l0.2,0.6c9.5-3.8,18.1-9.5,25.5-16.7l0,0
			c0.1-0.1,0.1-0.2,0.2-0.2c0,0,0.1-0.1,0.1-0.1l0,0c7.2-7.4,12.8-16,16.7-25.5l-0.8-0.3h0l0.8,0.3c1.7-4.3,3.1-8.7,4-13.3
			c1.1-5.4,1.7-10.9,1.7-16.4c0-2.3-0.1-4.6-0.3-6.9c-0.7-7.9-2.6-15.6-5.6-22.9l-1,0.4l1-0.4c-2.1-5.1-4.8-10-7.9-14.6l-0.9,0.6
			l0.9-0.6c-8-11.7-19-21.1-31.9-27v0c-5.4-2.5-11.1-4.4-17-5.6c-1-0.2-2.1-0.4-3.1-0.6l-0.2,1.1l0.2-1.1
			C400.1,3.9,393.5,3.6,386.9,4.2 M464.4,53.7c2.9,7.1,4.7,14.5,5.4,22.1c-1.1,6.6-2.9,13.2-5.6,19.7c-2.1-5.2-5.6-10.3-10.5-15.6
			c3.9-10.1,5.9-20.3,5.9-29.9c0-1.1,0-2.3-0.1-3.4C461.4,48.9,463,51.2,464.4,53.7 M355.5,145.6c-6-5.5-10.8-12.6-14.2-21
			c9.9,2,21.2,0.8,32.9-3.4c5.3,7.8,10.6,14.3,15.7,19.3C378.2,144.8,366.3,146.6,355.5,145.6 M318.4,84.2L318.4,84.2z M319.5,84.1
			c1.2-6.7,3.8-13.4,7.9-20.2c0.6,1.1,1.3,2.1,2.2,3c1.6,1.6,3.6,2.8,6,3.5c-2.4,9.7-3.3,18.6-2.7,26.5l0,0c-3.4-1-6.3-2.7-8.6-5
			C322.1,89.8,320.5,87.2,319.5,84.1 M408.5,23.4c0.2,0,0.4,0,0.7,0.1c1.5,7.2,0.2,16.2-3.7,25.5c-7.8-2.8-16.3-5.3-25.5-7.3
			c1.8-4.3,2.8-8.5,2.8-12.3c0-1.1-0.1-2.2-0.3-3.3C392,23.7,400.8,22.8,408.5,23.4 M451.2,80.5C446.1,93,438.2,105,428,115.3
			l-17.8-17.8c9.6-9.8,17.1-21.1,21.7-32.8C439.8,70,446.3,75.3,451.2,80.5 M335.1,97.6l-0.1-0.8c-0.6-7.7,0.3-16.4,2.6-25.9
			c4.6,0.7,10-0.1,15.6-2.5c2,9.1,4.5,17.7,7.3,25.5C351.3,97.8,342.4,99.1,335.1,97.6 M328.7,61.8c6.4-9.9,14.1-17,17.1-19.6
			c0,0,0,0.1,0.1,0.1c0,0,0,0,0,0c0,0,0,0,0,0c0,0,0,0,0.1,0.1c0,0,0.1,0.1,0.2,0.1c-1.6,3.1-6.7,13.4-10,25.9c-2-0.6-3.7-1.6-5-2.9
			C330.1,64.4,329.3,63.2,328.7,61.8 M370.8,16.2c-10.1,6.8-17.1,14.8-19.1,17.2c-0.1,0-0.2,0-0.3,0c0.5-2.9,2-9.7,6.9-15.9
			C362.8,15.9,367.2,15.5,370.8,16.2 M404.6,51c-3.9,8.4-9.7,16.7-16.8,24l-18.1-18.1c3.9-4.1,7.1-8.6,9.4-13.2
			C388.3,45.7,396.8,48.1,404.6,51 M338.2,68.8c3.4-12.7,8.7-23.2,10-25.7c0,0,0.1,0,0.1,0c0.2,0,0.4,0,0.6-0.1c0,0,0.1,0,0.1,0
			c0.4,3.3,1.5,12.3,3.8,23.2C347.5,68.6,342.5,69.5,338.2,68.8 M352.5,37.1c0,0,0,0.1,0,0.2c-0.1,0.2-0.1,0.4-0.2,0.6
			c0,0.1-0.1,0.1-0.1,0.2c-0.1,0.2-0.3,0.4-0.4,0.7c0,0,0,0,0,0c-0.2,0.3-0.4,0.5-0.6,0.7c-0.1,0.1-0.2,0.2-0.3,0.2
			c-0.2,0.1-0.3,0.3-0.4,0.4c0,0,0,0-0.1,0c-0.2,0.1-0.3,0.2-0.5,0.3c0,0-0.1,0-0.1,0c-0.1,0.1-0.3,0.2-0.4,0.2
			c-0.1,0-0.1,0-0.2,0.1c-0.1,0-0.2,0.1-0.3,0.1c-0.1,0-0.2,0-0.3,0.1c0,0-0.1,0-0.1,0c-0.4,0.1-0.8,0-0.9-0.2c0,0,0,0,0,0
			c-0.1-0.1-0.1-0.2-0.2-0.3c0,0,0-0.1,0-0.1c0-0.2,0-0.4,0-0.6c0,0,0,0,0,0c0.1-0.5,0.3-1,0.7-1.6c0,0,0-0.1,0.1-0.1
			c0.2-0.3,0.4-0.6,0.7-0.9v0c0.3-0.3,0.6-0.5,0.8-0.7c0.1,0,0.1-0.1,0.2-0.1c0.5-0.4,1.1-0.6,1.5-0.7c0,0,0.1,0,0.1,0
			c0.2,0,0.4,0,0.5,0c0,0,0.1,0,0.1,0c0.2,0,0.3,0.1,0.4,0.2c0.1,0.1,0.2,0.4,0.2,0.7C352.6,36.7,352.6,36.9,352.5,37.1 M376.9,43.2
			c-2.2,4.3-5.2,8.4-8.8,12.2l-15-15c0.2-0.2,0.3-0.4,0.5-0.6c0.1-0.1,0.1-0.2,0.2-0.3C356.2,39.7,365.4,40.7,376.9,43.2 M351.2,42
			c0.1-0.1,0.2-0.1,0.3-0.2l15.1,15.1c-3.6,3.4-7.7,6.3-11.8,8.4c-2.4-11.5-3.5-20.7-3.7-23.1C351.1,42.1,351.2,42.1,351.2,42
			 M355.3,67.5c4.5-2.2,8.9-5.3,12.8-9.1l18.1,18.1c-7.3,7-15.4,12.7-23.6,16.5C359.8,85.2,357.3,76.6,355.3,67.5 M354.6,37.4
			c0-0.1,0-0.1,0-0.2c0-0.2,0.1-0.4,0.1-0.6c2.5-1.3,13-6.6,25.7-10c0.6,4.2-0.3,9.3-2.6,14.6C366.9,38.8,357.9,37.7,354.6,37.4
			 M349.1,34.2c-0.3,0.1-0.5,0.3-0.8,0.5c0,0,0,0-0.1,0c-0.2,0.1-0.3,0.2-0.5,0.3l-6.6-6.6c4.1-4,8.7-7.2,13.3-9.3
			C350.3,25.7,349.3,32.2,349.1,34.2 M346.3,36.6c0,0-0.1,0.1-0.1,0.1c-0.2,0.2-0.3,0.5-0.5,0.7c-2,0.2-8.5,1.3-15.1,5.4
			c2.1-4.5,5.2-8.9,9-12.9L346.3,36.6z M363.4,95c8.6-3.9,16.9-9.7,24.4-17l19.3,19.4c-9.6,9.4-20.7,16.6-32.1,21.1
			C370.7,111.9,366.8,104.1,363.4,95 M376.3,120.3c11.5-4.6,22.7-11.9,32.4-21.4l17.8,17.9c-10.2,9.9-22.1,17.8-34.4,22.8
			C387,134.6,381.7,128.1,376.3,120.3 M430.1,63.4c-4.5,11.6-11.9,22.8-21.4,32.5l-19.4-19.4c7.4-7.6,13.4-16.1,17.4-24.8
			C415.7,55.1,423.6,59,430.1,63.4 M380,24.5c-12.5,3.3-22.8,8.4-25.9,10c-0.1-0.1-0.1-0.2-0.2-0.2c0,0,0,0,0,0h0c0,0-0.1,0-0.1-0.1
			c2.6-3,9.7-10.7,19.6-17.1c1.4,0.6,2.6,1.4,3.6,2.4C378.4,20.8,379.4,22.5,380,24.5 M357,15.7c-0.8,0.3-1.6,0.6-2.3,0.9
			c1-0.6,2-1.1,3-1.7C357.4,15.2,357.2,15.5,357,15.7 M327.4,45.3c-0.2,0.2-0.5,0.4-0.7,0.6c0.5-1,1.1-2,1.7-3
			C328,43.8,327.6,44.5,327.4,45.3 M329.2,46.6c6.2-4.9,13-6.4,15.9-6.9c0,0.1,0,0.2,0,0.3c-2.4,2-10.3,9-17.2,19.1
			C327.1,55.5,327.6,51.2,329.2,46.6 M361.4,95.9c3.4,9,7.3,16.8,11.6,23.4c-11.7,4.2-22.9,5.2-32.6,2.9c-2.4-6.6-4.1-14.1-5-22.3
			C342.9,101.2,352,99.8,361.4,95.9 M393.8,141.2c12.3-5.1,24.1-13,34.2-22.9l12.4,12.4c-9.1,8.8-19.3,15.8-30.4,20.7
			C404.7,149.6,399.3,146.2,393.8,141.2 M413.2,152.3c10.5-5,20.1-11.7,28.7-20.1l5.2,5.2c-7,6.6-15,11.8-23.9,15.4
			C419.8,153.2,416.5,153,413.2,152.3 M429.6,116.8c10.1-10.2,18.1-22.2,23.3-34.6c5,5.5,8.4,10.9,10.2,16.2
			c-5,11.3-12.1,21.6-21.1,30.8L429.6,116.8z M458.3,43.4L458.3,43.4L458.3,43.4z M457.2,43.9c1.1,10.8-0.7,22.6-5.1,34.4
			c-5.1-5.1-11.5-10.4-19.3-15.7c2.9-8,4.4-15.8,4.4-23c0-3.4-0.3-6.7-1-9.8C444.6,33.1,451.7,37.9,457.2,43.9 M433.8,28.7
			c2.3,9.7,1.3,20.9-2.9,32.6c-6.6-4.3-14.4-8.2-23.4-11.6c2.9-7,4.5-13.9,4.5-20c0-2.1-0.2-4.1-0.5-6
			C419.7,24.6,427.2,26.3,433.8,28.7 M382.1,23.9c-0.7-2.3-1.8-4.4-3.5-6c-0.9-0.9-1.9-1.6-3-2.2c6.7-4,13.5-6.7,20.2-7.9
			c3,1.1,5.6,2.7,7.8,4.8c2.3,2.3,4,5.3,5,8.7c0,0,0,0,0,0C400.7,20.6,391.8,21.5,382.1,23.9 M387,6.3c1.4,0,2.7,0.1,4,0.3
			c-5.9,1.6-11.9,4.2-17.9,8c-3.5-1.2-7.7-1.2-12.2-0.2c0.6-0.6,1.3-1.3,2-1.9c1.2-0.6,2.4-1.2,3.7-1.7C373.2,8.5,380,6.9,387,6.3
			 M359.4,13C359.4,13,359.4,13,359.4,13l-0.1-0.1L359.4,13z M357.9,14.6C357.9,14.6,357.9,14.6,357.9,14.6l-0.4-0.8L357.9,14.6z
			 M326.3,46.3C326.3,46.3,326.3,46.3,326.3,46.3l-0.8-0.4L326.3,46.3z M322.6,55c0.5-1.2,1.1-2.4,1.7-3.7c0.6-0.7,1.2-1.3,1.9-2
			c-1.1,4.6-1,8.7,0.2,12.2c-3.7,5.9-6.4,11.9-8,17.9c-0.2-1.3-0.3-2.6-0.3-4C318.6,68.4,320.1,61.5,322.6,55 M319.4,97.6
			c-0.2-1-0.4-2-0.6-3c-0.1-2.1-0.1-4.3,0.1-6.4c1,1.9,2.3,3.7,3.8,5.2c2.8,2.8,6.3,4.8,10.4,5.9c0.8,8.1,2.4,15.5,4.7,22.1
			c-5-1.6-9.4-4.1-13-7.5C322.4,108.7,320.6,103.3,319.4,97.6 M327.1,118.6c3.4,2.4,7.3,4.2,11.6,5.3c3.2,8.3,7.6,15.4,13.2,21.2
			c-0.3-0.1-0.7-0.1-1-0.1C341,138.1,332.9,129.1,327.1,118.6 M365.4,152.8c-2.5-1.4-4.9-3.1-7.1-4.8c10.6,0.5,22.1-1.4,33.4-5.8
			c5.3,4.9,10.4,8.4,15.6,10.5c-6.4,2.6-13,4.5-19.7,5.5C379.9,157.5,372.5,155.7,365.4,152.8 M396.6,158.5
			c4.6-1.2,9.1-2.8,13.6-4.7c2.3,0.7,4.5,1.2,6.9,1.4c-2.2,0.7-4.5,1.3-6.7,1.8C405.8,157.8,401.2,158.3,396.6,158.5 M448.7,135.9
			l-5.2-5.2c8.5-8.7,15.4-18.5,20.4-29.1c0.7,3.3,0.9,6.6,0.5,10.1C460.8,120.7,455.5,128.9,448.7,135.9 M466.7,105.4
			c-0.2-2.3-0.7-4.6-1.4-6.9c1.9-4.5,3.5-9,4.7-13.6c-0.1,4.6-0.7,9.2-1.6,13.7C468,100.9,467.4,103.2,466.7,105.4 M456.6,39.3
			c0.1,0.3,0.1,0.7,0.2,1c-5.8-5.6-12.9-10-21.2-13.2c-1.2-4.3-3-8.2-5.3-11.6C440.7,21.2,449.8,29.4,456.6,39.3 M425.6,13.1
			c3.4,3.6,5.9,8,7.5,13c-6.6-2.3-14-3.8-22.1-4.7c-1.1-4.1-3.1-7.6-5.9-10.4c-1.5-1.5-3.3-2.8-5.2-3.8c2.1-0.2,4.3-0.2,6.4-0.1
			c1,0.2,2,0.3,3,0.6C414.9,8.9,420.4,10.8,425.6,13.1"/>
	</g>
	<polygon class="st5" points="129.9,22.5 110.4,22.5 92.6,80.7 110.4,138.9 129.9,138.9 112.1,80.7 	"/>
	<polygon class="st6" points="99.5,22.5 80,22.5 62.1,80.7 80,138.9 99.5,138.9 81.7,80.7 	"/>
	<polygon class="st3" points="69.1,22.5 49.5,22.5 31.7,80.7 49.5,138.9 69.1,138.9 51.3,80.7 	"/>
	<polygon class="st7" points="37.4,22.5 17.8,22.5 0,80.7 17.8,138.9 37.4,138.9 19.6,80.7 	"/>
	<polygon class="st5" points="254.2,22.5 234.6,22.5 216.8,80.7 234.6,138.9 254.2,138.9 236.4,80.7 	"/>
	<polygon class="st6" points="223.8,22.5 204.2,22.5 186.4,80.7 204.2,138.9 223.8,138.9 206,80.7 	"/>
	<polygon class="st3" points="193.4,22.5 173.8,22.5 156,80.7 173.8,138.9 193.4,138.9 175.6,80.7 	"/>
	<polygon class="st7" points="161.6,22.5 142.1,22.5 124.3,80.7 142.1,138.9 161.6,138.9 143.8,80.7 	"/>
	<polygon class="st5" points="857.8,22.5 877.4,22.5 895.2,80.7 877.4,138.9 857.8,138.9 875.6,80.7 	"/>
	<polygon class="st6" points="888.2,22.5 907.8,22.5 925.6,80.7 907.8,138.9 888.2,138.9 906.1,80.7 	"/>
	<polygon class="st3" points="918.7,22.5 938.2,22.5 956,80.7 938.2,138.9 918.7,138.9 936.5,80.7 	"/>
	<polygon class="st7" points="950.4,22.5 970,22.5 987.8,80.7 970,138.9 950.4,138.9 968.2,80.7 	"/>
	<polygon class="st5" points="733.6,22.5 753.2,22.5 771,80.7 753.2,138.9 733.6,138.9 751.4,80.7 	"/>
	<polygon class="st6" points="764,22.5 783.6,22.5 801.4,80.7 783.6,138.9 764,138.9 781.8,80.7 	"/>
	<polygon class="st3" points="794.4,22.5 814,22.5 831.8,80.7 814,138.9 794.4,138.9 812.2,80.7 	"/>
	<polygon class="st7" points="826.1,22.5 845.7,22.5 863.5,80.7 845.7,138.9 826.1,138.9 843.9,80.7 	"/>
</g>
</svg>
