<?xml version="1.0" encoding="utf-8"?>
<!-- Generator: Adobe Illustrator 24.1.0, SVG Export Plug-In . SVG Version: 6.00 Build 0)  -->
<svg version="1.1" id="Layer_1" xmlns="http://www.w3.org/2000/svg" xmlns:xlink="http://www.w3.org/1999/xlink" x="0px" y="0px"
	 viewBox="0 0 538.6 330" style="enable-background:new 0 0 538.6 330;" xml:space="preserve">
<style type="text/css">
	.st0{fill:#FFFFFF;}
</style>
<g>
	<polygon class="st0" points="212.2,34.9 206.7,34.9 202.3,34.9 196.8,34.9 192.4,34.9 186.9,34.9 182.5,34.9 177,34.9 172.6,34.9 
		167.1,34.9 162.7,34.9 157.2,34.9 152.8,34.9 150.5,34.9 103.7,188 63.2,34.9 0,34.9 0,231.9 0,292.8 63.2,292.8 63.2,231.9 
		152.8,231.9 152.8,295.1 157.2,295.1 157.2,228.9 162.7,211 162.7,295.1 167.1,295.1 167.1,196.6 172.6,178.6 172.6,295.1 
		177,295.1 177,164.3 182.5,146.3 182.5,295.1 186.9,295.1 186.9,132 192.4,114 192.4,295.1 196.8,295.1 196.8,99.6 202.3,81.7 
		202.3,295.1 206.7,295.1 206.7,67.3 212.2,49.3 212.2,295.1 216.6,295.1 216.6,35 216.6,34.9 216.6,34.9 	"/>
	<path class="st0" d="M534.2,34.9L534.2,34.9l-5.5,0v0h-4.4v0h-5.5v0h-4.4v0h-5.5v0h-4.4v0H499v0h-4.4v0h-5.5v0h-4.4v0l-5.5,0v0
		h-4.4v0l-24.7,0l-19.3,63.2l44,0v47l0,0v149.9h63.7v-71.4V34.9H534.2z M484.7,157.4l-5.5-6.8V98.1h5.5V157.4z M494.6,169.5
		l-5.5-6.8V98.1h5.5V169.5z M504.5,181.7L499,175V98.1h5.5V181.7z M514.4,193.9l-5.5-6.8v-89h5.5V193.9z M524.3,206.1l-5.5-6.8V98.1
		h0.5l5-16.5V206.1z M534.2,218.3l-5.5-6.8V67.3l5.5-18V218.3z"/>
	<path class="st0" d="M415.1,295.1v-63.2H325l0,0l7.5-24.6c46.6-2.2,83.7-40.7,83.7-87.8c0-40.3-27.1-74.2-64.1-84.6l0,0h-93
		l-1.3,4.4h93l-1.7,5.5h-93l-1.3,4.4h93l-1.7,5.5h-93l-1.3,4.4h93l-1.7,5.5h-93l-1.3,4.4h93l-1.7,5.5h-93l-1.3,4.4h93l-1.7,5.5h-93
		l-1.3,4.4h93l-1.7,5.5h-93l-1.3,4.4h60.1l-60.1,196.4H415.1z"/>
</g>
</svg>
